<?xml version="1.0" encoding="UTF-8"?>
<svg width="22px" height="20px" viewBox="0 0 22 20" version="1.1" xmlns="http://www.w3.org/2000/svg" xmlns:xlink="http://www.w3.org/1999/xlink">
    <defs></defs>
    <g id="mockup" stroke="none" stroke-width="1" fill="none" fill-rule="evenodd">
        <g id="Portfolio-Copy-15" transform="translate(-1168.000000, -5523.000000)" fill="#333B3F">
            <g id="Group-10" transform="translate(0.000000, 5357.000000)">
                <g id="Group-8" transform="translate(250.000000, 164.000000)">
                    <g id="Group-7" transform="translate(862.000000, 0.000000)">
                        <path d="M78,22 L73.1376999,22 L73.1376999,14.9692002 C73.1376999,13.128898 72.3771167,11.8725748 70.7046096,11.8725748 C69.4253293,11.8725748 68.7138993,12.7203688 68.3827611,13.5374272 C68.2585842,13.8306973 68.2779868,14.2392265 68.2779868,14.6477557 L68.2779868,22 L63.4609595,22 C63.4609595,22 63.523048,9.54562336 63.4609595,8.41352372 L68.2779868,8.41352372 L68.2779868,10.5458155 C68.5625588,9.61349811 70.1018344,8.28289684 72.5582079,8.28289684 C75.605715,8.28289684 78,10.2371774 78,14.4454121 L78,22 L78,22 Z M58.5896049,6.71409362 L58.5585607,6.71409362 C57.00635,6.71409362 56,5.67548185 56,4.35896779 C56,3.01684062 57.0361007,2 58.6193556,2 C60.201317,2 61.1740357,3.01427931 61.20508,4.35512582 C61.20508,5.67163988 60.201317,6.71409362 58.5896049,6.71409362 L58.5896049,6.71409362 L58.5896049,6.71409362 Z M56.5549153,8.41352372 L60.8428975,8.41352372 L60.8428975,22 L56.5549153,22 L56.5549153,8.41352372 L56.5549153,8.41352372 Z" id="LinkedIn"></path>
                    </g>
                </g>
            </g>
        </g>
    </g>
</svg>