<?xml version="1.0" encoding="UTF-8"?>
<svg width="35px" height="31px" viewBox="0 0 35 31" version="1.1" xmlns="http://www.w3.org/2000/svg" xmlns:xlink="http://www.w3.org/1999/xlink">
    <!-- Generator: Sketch 46.2 (44496) - http://www.bohemiancoding.com/sketch -->
    <title>Group 12</title>
    <desc>Created with Sketch.</desc>
    <defs></defs>
    <g id="Home" stroke="none" stroke-width="1" fill="none" fill-rule="evenodd">
        <g id="Portfolio-Copy-28" transform="translate(-32.000000, -27.000000)">
            <g id="Group-12" transform="translate(32.000000, 25.000000)">
                <rect id="Rectangle-3" x="0" y="0" width="35" height="35"></rect>
                <g id="Group" transform="translate(0.000000, 2.000000)"></g>
                <path d="M24.4078759,16.8916171 L20.1000497,7.82047424 C18.252776,3.93060413 15.8502973,3.92953196 14.0025144,7.82047424 L9.75166087,16.7716477 L12.9914991,21.2182772 L15.3353916,18.7350554 C16.3060699,17.7066765 17.8788601,17.6847481 18.8844688,18.679418 L21.4589588,21.2259033 L24.4078759,16.8916171 Z M25.786988,19.7956625 L23.4385224,23.2474117 C22.5823614,24.5057879 20.9498048,24.6747244 19.8818378,23.6183744 L17.1405346,20.9068905 L14.6337031,23.562737 C13.598756,24.6592051 11.9710224,24.5379635 11.0786639,23.3132149 L8.39456601,19.6293307 L2.565193,31.9044489 C2.22585776,32.6189992 1.40954738,32.9038404 0.741912739,32.5406596 C0.0742780974,32.1774788 -0.191861149,31.3038051 0.147474094,30.5892548 L11.5847955,6.50528013 C14.4380533,0.497073546 19.6656187,0.499406479 22.5177686,6.50528013 L33.95509,30.5892548 C34.2944253,31.3038051 34.028286,32.1774788 33.3606514,32.5406596 C32.6930167,32.9038404 31.8767063,32.6189992 31.5373711,31.9044489 L25.786988,19.7956625 Z" id="Combined-Shape" fill="#2D2D2D" fill-rule="nonzero"></path>
            </g>
        </g>
    </g>
</svg>